<?xml version="1.0" encoding="UTF-8"?>
<svg width="128" height="128" viewBox="0 0 128 128" xmlns="http://www.w3.org/2000/svg">
  <defs>
    <linearGradient id="folderGradient" x1="0%" y1="0%" x2="0%" y2="100%">
      <stop offset="0%" style="stop-color:#00d4ff;stop-opacity:1" />
      <stop offset="100%" style="stop-color:#008cba;stop-opacity:1" />
    </linearGradient>
    <filter id="shadow" x="-20%" y="-20%" width="140%" height="140%">
      <feGaussianBlur in="SourceAlpha" stdDeviation="3"/>
      <feOffset dx="0" dy="4" result="offsetblur"/>
      <feComponentTransfer>
        <feFuncA type="linear" slope="0.3"/>
      </feComponentTransfer>
      <feMerge> 
        <feMergeNode/>
        <feMergeNode in="SourceGraphic"/> 
      </feMerge>
    </filter>
  </defs>
  
  <!-- Folder Back -->
  <path d="M12,24 L48,24 L60,36 L116,36 C120.4,36 124,39.6 124,44 L124,104 C124,108.4 120.4,112 116,112 L12,112 C7.6,112 4,108.4 4,104 L4,32 C4,27.6 7.6,24 12,24 Z" fill="url(#folderGradient)" filter="url(#shadow)"/>
  
  <!-- Folder Front/Content -->
  <path d="M12,44 L116,44 C120.4,44 124,47.6 124,52 L124,104 C124,108.4 120.4,112 116,112 L12,112 C7.6,112 4,108.4 4,104 L4,52 C4,47.6 7.6,44 12,44 Z" fill="#ffffff" fill-opacity="0.2"/>
  
  <!-- "U" Logo/Symbol -->
  <path d="M48,60 L48,84 C48,90 52,94 58,94 L70,94 C76,94 80,90 80,84 L80,60" stroke="#ffffff" stroke-width="8" fill="none" stroke-linecap="round"/>
</svg>
